<?xml version="1.0"?>
<svg xmlns="http://www.w3.org/2000/svg" viewBox="0 0 64 64" width="512" height="512"><g id="filled_outline" data-name="filled outline"><path d="M48,61H16a4,4,0,0,1-4-4V19a8,8,0,0,1,8-8H44a8,8,0,0,1,8,8V57A4,4,0,0,1,48,61Z" style="fill:#666"/><path d="M22,3H42a2,2,0,0,1,2,2v6a0,0,0,0,1,0,0H20a0,0,0,0,1,0,0V5A2,2,0,0,1,22,3Z" style="fill:#e8594a"/><rect x="12" y="21" width="40" height="32" style="fill:#e8594a"/><polygon points="35 25 25 38 29 38 27 49 37 36 33 36 35 25" style="fill:#fdb62f"/><rect x="15" y="24" width="2" height="2" style="fill:#fc6962"/><rect x="15" y="28" width="2" height="10" style="fill:#fc6962"/><rect x="23" y="6" width="2" height="5" style="fill:#bf3f3b"/><rect x="27" y="6" width="2" height="5" style="fill:#bf3f3b"/><rect x="31" y="6" width="2" height="5" style="fill:#bf3f3b"/><rect x="35" y="6" width="2" height="5" style="fill:#bf3f3b"/><rect x="39" y="6" width="2" height="5" style="fill:#bf3f3b"/><path d="M44,11H36a8,8,0,0,1,8,8v2h8V19A8,8,0,0,0,44,11Z" style="fill:#545454"/><path d="M44,57a4,4,0,0,1-4,4h8a4,4,0,0,0,4-4V53H44Z" style="fill:#545454"/><rect x="44" y="21" width="8" height="32" style="fill:#d65551"/><path d="M42,2H22a3,3,0,0,0-3,3v5.059A9.011,9.011,0,0,0,11,19V57a5.006,5.006,0,0,0,5,5H48a5.006,5.006,0,0,0,5-5V19a9.011,9.011,0,0,0-8-8.941V5A3,3,0,0,0,42,2ZM21,5a1,1,0,0,1,1-1H42a1,1,0,0,1,1,1v5H41V6H39v4H37V6H35v4H33V6H31v4H29V6H27v4H25V6H23v4H21ZM51,52H13V22H51Zm-3,8H16a3,3,0,0,1-3-3V54H51v3A3,3,0,0,1,48,60Zm3-41v1H13V19a7.008,7.008,0,0,1,7-7H44A7.008,7.008,0,0,1,51,19Z"/><path d="M25,39h2.8l-1.786,9.821a1,1,0,0,0,1.776.789l10-13A1,1,0,0,0,37,35H34.2l1.786-9.821a1,1,0,0,0-1.776-.789l-10,13A1,1,0,0,0,25,39Zm8.278-10.122-1.262,6.943A1,1,0,0,0,33,37h1.969l-6.247,8.122,1.262-6.943A1,1,0,0,0,29,37H27.031Z"/><rect x="15" y="24" width="2" height="2"/><rect x="15" y="28" width="2" height="10"/></g></svg>
