<?xml version="1.0" encoding="utf-8"?>
<svg width="1920px" height="1080px" viewBox="0 0 1920 1080" version="1.1" xmlns:xlink="http://www.w3.org/1999/xlink" xmlns="http://www.w3.org/2000/svg">
  <desc>Created with Lunacy</desc>
  <g id="shivaa" transform="translate(-345 -252)">
    <path d="M1108.71 810.585Q1099.5 819.258 1096.67 822.09Q1095.61 824.568 1090.65 830.94Q1078.47 847.277 1075.82 845.854Q1075.08 845.457 1075.08 843.684Q1076.49 836.25 1081.45 823.86Q1082.51 820.32 1085.34 814.302Q1088.18 808.284 1089.24 806.16Q1092.42 799.788 1099.5 787.044L1106.23 774.654Q1114.37 761.202 1115.08 760.14Q1115.79 759.786 1116.49 758.37L1117.56 756.246Q1120.74 753.768 1124.64 747.396Q1130.66 736.422 1140.92 726.864L1145.88 721.554Q1148.35 718.368 1151.19 719.076L1155.44 720.492L1158.27 721.554Q1158.97 721.908 1160.04 723.147Q1161.1 724.386 1161.28 724.563L1161.29 724.574Q1161.49 724.687 1162.52 723.324Q1165.7 715.182 1161.1 708.456Q1158.27 695.004 1143.05 679.959Q1127.82 664.914 1117.2 673.056Q1108.35 679.782 1099.86 691.818Q1089.59 704.916 1076.85 729.342Q1072.24 737.838 1060.56 761.556Q1058.79 766.512 1053.84 781.38Q1048.88 796.248 1045.7 806.16Q1042.51 816.072 1038.26 831.825Q1037.96 832.956 1037.67 834.049Q1035.52 836.379 1034.01 837.666Q1028.35 842.622 1022.68 846.87Q1017.38 851.118 1006.76 858.906Q1004.28 859.614 1001.09 861.03Q997.905 862.446 995.25 863.685Q992.595 864.924 990.117 865.809Q987.639 866.694 985.869 865.986Q984.099 865.278 983.037 863.154Q982.329 862.446 981.621 859.791Q980.913 857.136 979.851 856.428Q978.081 854.658 974.01 845.985Q969.939 837.312 967.461 835.188Q964.629 832.356 963.921 830.586Q961.797 824.568 964.275 817.842L967.107 812.178Q967.461 811.824 967.461 811.116Q967.107 810.054 968.169 808.284Q968.877 807.576 968.877 807.222Q969.939 804.744 971.709 803.682Q972.771 803.328 974.187 800.85Q975.249 798.726 977.019 791.646Q977.727 789.522 977.727 785.274Q977.019 784.566 977.019 782.442Q976.665 778.902 973.302 771.645Q969.939 764.388 967.815 763.326Q967.461 762.972 967.107 762.972Q964.275 760.14 960.735 758.724Q960.638 758.627 960.521 758.583Q959.785 758.307 958.257 760.14Q957.549 761.91 956.133 762.618Q955.071 763.326 954.717 763.68Q954.009 764.742 952.239 767.22Q950.469 769.698 949.761 771.114L946.575 777.486L944.451 780.672Q944.097 781.734 943.389 783.327Q942.681 784.92 942.327 785.628Q941.619 786.69 941.088 788.637Q940.557 790.584 939.849 791.646Q940.557 793.062 939.495 796.602Q937.371 800.142 937.725 802.974Q937.371 803.682 937.194 804.567Q937.017 805.452 936.663 805.806Q936.663 810.762 940.38 824.922Q944.097 839.082 946.575 842.622Q946.575 843.33 947.283 844.569Q947.991 845.808 948.345 846.516Q955.425 859.614 957.549 867.048Q961.443 874.128 960.558 879.615Q959.673 885.102 950.469 893.598Q940.911 902.094 932.061 914.838Q927.459 921.918 926.043 927.582Q924.981 930.414 924.981 933.246Q926.397 941.034 928.167 943.512Q928.875 944.22 930.645 949.176Q931.78 951.257 933.32 951.619Q934.661 951.935 936.309 950.946Q937.371 950.946 938.079 949.884Q938.787 949.884 939.495 949.53Q940.203 949.176 940.911 949.176L940.203 950.946Q941.973 951.654 942.681 951.3Q946.929 949.884 948.345 948.822Q948.699 948.114 949.407 947.76Q950.115 947.406 950.469 947.052Q950.823 947.76 951.531 948.114L951.531 949.176Q954.717 947.052 956.133 947.052L949.761 955.548L951.177 954.486Q955.071 953.778 957.903 950.592L958.611 949.884Q964.275 947.052 965.337 945.636L968.169 942.096Q980.205 930.06 982.329 925.458Q982.683 924.396 986.577 918.732L987.639 918.024Q988.701 917.316 989.409 916.254Q989.763 915.546 989.94 912.36Q990.117 909.174 990.825 908.112L991.179 906.696L991.179 903.864Q993.303 896.076 991.887 889.704Q991.887 885.456 994.542 883.155Q997.197 880.854 1002.15 878.73Q1007.11 876.606 1009.59 874.836L1013.48 871.65Q1014.19 870.942 1018.44 867.756Q1022.68 864.57 1024.81 863.154L1026.22 861.738L1032.77 856.126Q1032.49 857.815 1032.24 859.437Q1030.47 871.296 1030.3 884.571Q1030.12 897.846 1032.95 907.758Q1033.66 915.9 1037.91 919.794Q1038.26 920.502 1039.85 922.095Q1041.45 923.688 1042.16 924.75Q1042.51 924.75 1043.22 925.458Q1043.93 926.166 1044.28 926.166L1044.99 925.812L1046.05 925.458Q1049.94 924.75 1050.65 925.458L1052.78 925.458Q1053.13 924.75 1053.84 923.688Q1054.55 922.626 1054.9 922.272Q1058.44 920.148 1059.15 913.776Q1059.5 912.36 1060.21 910.059Q1060.92 907.758 1060.92 906.696Q1062.33 902.094 1062.69 900.678Q1063.04 897.846 1064.81 894.306Q1065.52 893.244 1070.65 883.155Q1075.79 873.066 1080.56 863.862Q1085.34 854.658 1086.76 852.534Q1087.82 851.118 1094.19 843.684L1112.25 821.382Q1115.08 818.55 1116.49 815.718Q1117.91 812.886 1120.39 811.116Q1123.22 806.16 1128.53 802.443Q1133.84 798.726 1139.68 798.372Q1145.52 798.018 1149.42 804.39Q1149.42 808.638 1148.71 810.408Q1147.65 814.302 1146.23 817.488Q1145.52 819.258 1134.55 841.56Q1123.57 863.862 1122.16 870.942Q1120.04 886.518 1127.82 893.244Q1135.61 899.97 1145.52 898.554Q1155.44 897.138 1161.81 891.12Q1162.87 890.412 1168.89 885.456Q1174.91 880.5 1175.97 879.438Q1176.68 878.022 1182.34 870.588Q1183.05 869.88 1187.12 867.402Q1191.19 864.924 1191.9 863.508Q1192.25 861.03 1195.44 857.136L1198.62 853.242Q1199.31 852.012 1199.99 850.842Q1199.82 852.437 1199.68 854.658Q1199.33 860.676 1198.98 862.446Q1198.98 866.694 1199.68 868.818Q1199.68 873.774 1203.22 882.978Q1208.54 888.642 1213.49 890.766Q1215.26 891.474 1218.27 893.421Q1221.28 895.368 1223.76 896.076Q1226.23 896.784 1228.36 896.076Q1238.27 899.97 1252.43 891.297Q1266.59 882.624 1271.55 876.252Q1276.86 873.066 1281.1 866.694Q1282.64 864.384 1284.23 861.564Q1284.08 862.239 1283.94 862.8Q1282.88 870.234 1282.88 870.588Q1282.52 872.712 1284.47 877.491Q1286.41 882.27 1288.54 884.394Q1288.89 884.748 1295.27 889.704Q1301.64 894.66 1302.34 896.076Q1305.89 903.864 1314.38 900.324Q1319.34 899.616 1320.75 899.616Q1322.17 899.97 1324.65 899.97Q1327.48 899.97 1328.9 897.846Q1334.56 894.306 1338.1 885.81Q1339.87 881.916 1343.41 877.668Q1345.89 873.066 1345.53 871.296Q1345.53 870.942 1345.89 870.234L1345.89 869.526Q1348.01 863.862 1350.84 860.322Q1355.44 855.72 1356.86 851.118Q1357.21 850.764 1357.75 849.879Q1358.28 848.994 1358.98 848.64Q1361.11 845.454 1363.94 839.436Q1366.77 833.418 1367.48 832.002Q1372.08 822.444 1372.79 821.736Q1374.21 824.214 1376.68 828.108Q1379.16 832.002 1380.93 835.188Q1381.29 835.542 1382.88 836.958L1386.07 839.79Q1387.66 841.206 1387.66 841.56Q1388.01 841.914 1392.97 845.454Q1393.32 845.454 1395.09 846.516Q1396.86 847.578 1398.81 848.64Q1400.76 849.702 1403.23 850.233Q1405.71 850.764 1406.77 850.056Q1408.19 850.056 1414.03 848.286Q1419.14 846.738 1420.05 845.461Q1422.3 860.952 1436.86 867.048Q1440.41 868.464 1442.18 869.526Q1448.55 873.066 1456.69 870.588Q1463.06 868.11 1464.48 866.34L1465.19 865.986L1469.08 863.508Q1471.56 861.384 1476.51 858.906Q1478.99 862.446 1485.01 864.924L1486.78 865.986Q1488.9 867.756 1498.82 870.942L1502 870.942Q1502.71 870.588 1505.72 870.234Q1508.73 869.88 1510.14 869.172Q1511.91 868.464 1515.1 868.11Q1518.29 867.756 1518.99 867.402Q1522.89 866.34 1525.72 863.862Q1526.43 863.154 1529.08 860.853Q1531.74 858.552 1532.8 857.136Q1533.15 856.428 1534.57 855.72Q1537.76 853.95 1538.82 851.472Q1538.82 851.118 1540.94 848.994L1543.06 846.495Q1545.63 861.158 1559.7 867.048Q1563.24 868.464 1565.01 869.526Q1571.38 873.066 1579.53 870.588Q1585.9 868.11 1587.31 866.34L1588.02 865.986L1591.92 863.508Q1594.39 861.384 1599.35 858.906Q1601.83 862.446 1607.85 864.924L1609.62 865.986Q1611.74 867.756 1621.65 870.942L1624.84 870.942Q1625.55 870.588 1628.56 870.234Q1631.56 869.88 1632.98 869.172Q1634.75 868.464 1637.94 868.11Q1641.12 867.756 1641.83 867.402Q1645.72 866.34 1648.56 863.862Q1649.26 863.154 1651.92 860.853Q1654.57 858.552 1655.64 857.136Q1655.99 856.428 1657.41 855.72Q1660.59 853.95 1661.65 851.472Q1661.65 851.118 1663.78 848.994L1667.67 844.392Q1668.03 844.392 1668.56 843.684Q1669.09 842.976 1669.8 842.622Q1671.21 841.56 1673.16 836.958Q1675.11 832.356 1675.46 830.232Q1672.27 827.046 1669.44 826.692L1668.38 827.4Q1665.9 829.524 1660.24 837.666Q1654.57 845.808 1652.1 848.286L1646.43 853.242L1638.64 857.844Q1637.58 858.552 1631.92 861.384Q1629.44 862.446 1624.48 863.154Q1622.36 863.154 1621.3 861.384Q1619.17 857.49 1618.11 852.534Q1617.76 848.994 1619.17 845.1L1624.13 835.188Q1624.84 833.772 1624.84 833.418Q1624.13 826.338 1621.65 823.152L1619.53 821.028Q1617.05 817.842 1611.74 818.55L1604.31 830.586Q1602.54 833.418 1598.29 838.374L1595.46 841.56Q1593.69 844.746 1590.15 847.578Q1584.48 851.826 1578.46 857.844L1577.05 858.906L1577.05 857.49Q1578.11 851.826 1581.3 845.808Q1582 844.392 1582.71 843.684L1586.25 838.728Q1593.33 828.816 1594.75 827.4L1599 822.798Q1599.7 821.736 1610.68 810.762L1610.68 810.408Q1616.34 806.16 1619.53 804.744Q1623.78 802.266 1622.71 797.664L1621.65 794.832Q1621.3 794.124 1615.63 788.46Q1614.93 787.752 1613.86 787.752Q1612.8 787.752 1611.39 786.867Q1609.97 785.982 1608.91 785.982L1608.2 785.628Q1607.49 784.566 1604.31 783.858Q1603.6 783.858 1602.18 783.15Q1601.47 782.796 1598.64 782.442Q1595.81 782.088 1594.75 781.38L1593.69 781.38Q1591.21 781.38 1586.96 782.088Q1585.19 782.088 1583.77 782.796Q1576.34 787.398 1570.32 793.77Q1558.99 807.222 1554.75 813.948Q1554.04 814.656 1554.04 815.01Q1550.72 818.665 1546.15 826.998L1545.54 827.4Q1543.07 829.524 1537.4 837.666Q1531.74 845.808 1529.26 848.286L1523.6 853.242L1515.81 857.844Q1514.74 858.552 1509.08 861.384Q1506.6 862.446 1501.65 863.154Q1499.52 863.154 1498.46 861.384Q1496.34 857.49 1495.28 852.534Q1494.92 848.994 1496.34 845.1L1501.29 835.188Q1502 833.772 1502 833.418Q1501.29 826.338 1498.82 823.152L1496.69 821.028Q1494.21 817.842 1488.9 818.55L1481.47 830.586Q1479.7 833.418 1475.45 838.374L1472.62 841.56Q1470.85 844.746 1467.31 847.578Q1461.65 851.826 1455.63 857.844L1454.21 858.906L1454.21 857.49Q1455.27 851.826 1458.46 845.808Q1459.17 844.392 1459.88 843.684L1463.42 838.728Q1470.49 828.816 1471.91 827.4L1476.16 822.798Q1476.87 821.736 1487.84 810.762L1487.84 810.408Q1493.51 806.16 1496.69 804.744Q1500.94 802.266 1499.88 797.664L1498.82 794.832Q1498.46 794.124 1492.8 788.46Q1492.09 787.752 1491.03 787.752Q1489.97 787.752 1488.55 786.867Q1487.13 785.982 1486.07 785.982L1485.36 785.628Q1484.66 784.566 1481.47 783.858Q1480.76 783.858 1479.35 783.15Q1478.64 782.796 1475.81 782.442Q1472.97 782.088 1471.91 781.38L1470.85 781.38Q1468.37 781.38 1464.12 782.088Q1462.35 782.088 1460.94 782.796Q1453.5 787.398 1447.49 793.77Q1436.16 807.222 1431.91 813.948Q1431.2 814.656 1431.2 815.01Q1427.66 818.904 1422.71 828.108Q1420.64 832.228 1419.97 836.448Q1417.27 838.754 1415.63 839.082Q1413.5 839.436 1410.85 840.675Q1408.19 841.914 1406.77 842.268Q1403.59 842.976 1400.93 840.852Q1398.28 838.728 1395.8 835.542Q1393.32 832.356 1392.61 831.648Q1387.3 818.904 1385.18 805.806L1384.47 803.682Q1384.12 802.266 1383.06 801.912Q1380.22 800.85 1379.52 801.204Q1378.1 801.204 1377.92 800.673Q1377.75 800.142 1376.68 799.788Q1373.5 797.664 1367.83 797.664L1366.24 798.195Q1365.71 798.372 1365.36 798.549Q1365 798.726 1365 799.257L1365 800.319Q1365 800.85 1365.18 802.266Q1365.36 803.682 1365.36 805.098Q1367.83 814.656 1367.48 815.718Q1366.42 819.612 1364.47 821.028Q1362.52 822.444 1360.4 827.046Q1357.92 830.586 1356.86 834.834Q1354.74 841.206 1351.2 845.454L1345.89 852.888Q1341.99 858.906 1330.66 872.712L1328.9 874.128Q1328.9 873.42 1328.19 872.535Q1327.48 871.65 1327.48 871.119Q1327.48 870.588 1328.19 869.172L1327.83 868.11L1327.13 865.986Q1327.13 862.446 1326.42 860.322Q1326.42 859.968 1326.06 859.614L1326.06 858.906L1325.35 859.614Q1323.94 864.57 1324.29 866.34Q1324.74 867.238 1324.48 867.567Q1324.33 867.756 1323.94 867.756L1322.17 867.756Q1321.11 866.694 1321.46 864.57Q1321.81 862.446 1321.11 858.906Q1320.75 855.366 1320.75 847.932Q1320.75 846.87 1321.46 846.87L1322.52 846.87L1323.58 847.932L1324.29 852.534L1325.35 852.888Q1326.42 850.41 1326.42 847.932Q1325.71 842.976 1326.06 839.79Q1326.06 832.71 1325.71 829.17L1325.71 826.338Q1325.71 817.488 1324.29 813.24Q1324.29 812.886 1324.12 811.293Q1323.94 809.7 1323.94 808.638Q1323.23 799.788 1321.81 796.956Q1320.75 794.832 1322.17 790.938Q1323.58 791.292 1325.71 791.292Q1325.35 789.168 1323.41 786.336Q1321.46 783.504 1321.46 783.15Q1315.44 777.84 1314.38 776.07Q1314.38 774.654 1312.26 774.654Q1310.84 774.654 1309.07 772.53Q1307.65 771.114 1307.3 770.406Q1305.53 768.636 1303.76 769.698Q1303.41 770.052 1302.7 772.53L1302.34 777.486Q1301.99 778.902 1300.93 787.398Q1299.16 796.956 1297.03 803.682Q1295.62 808.638 1293.49 818.373Q1291.37 828.108 1290.31 832.356L1290.09 833.378Q1287.84 837.137 1283.58 843.33Q1277.56 849.702 1273.85 856.782Q1270.13 863.862 1265.71 867.402Q1261.28 870.942 1247.83 875.898Q1243.58 876.606 1242.17 875.544Q1240.75 875.19 1238.98 873.951Q1237.21 872.712 1236.85 872.712Q1234.38 869.172 1234.02 867.402Q1233.67 865.632 1234.38 854.658Q1235.08 843.684 1235.08 842.622Q1235.44 838.02 1238.27 830.586Q1239.33 828.462 1239.33 827.754L1239.33 827.4L1236.5 831.294L1235.44 833.418Q1234.89 834.338 1234.81 834.302Q1234.75 834.268 1235.08 833.418Q1236.15 831.648 1237.74 827.4Q1239.33 823.152 1239.69 822.798L1241.46 817.488Q1242.52 815.364 1245.17 810.408Q1247.83 805.452 1248.89 802.974Q1250.31 798.018 1248.18 795.186Q1247.47 794.478 1245.17 792.885Q1242.87 791.292 1242.17 790.584Q1240.75 789.522 1237.56 790.584Q1234.38 791.646 1230.84 793.416Q1227.3 795.186 1225.88 795.54Q1223.76 796.956 1223.05 798.018L1222.69 798.372Q1221.99 798.726 1220.57 798.018Q1219.16 801.204 1219.51 802.974Q1220.22 805.098 1218.09 808.992L1217.39 810.762Q1216.32 812.886 1211.9 819.789Q1207.47 826.692 1206.06 830.586Q1204.48 833.429 1204.87 833.735Q1204.92 833.772 1204.99 833.772L1209.24 830.232Q1208.89 830.764 1208.44 831.607Q1208 831.927 1207.47 832.356Q1204.99 834.48 1201.81 839.967Q1198.62 845.454 1197.92 846.516Q1195.79 848.994 1192.07 851.472Q1188.36 853.95 1186.59 856.074Q1186.23 856.428 1179.86 861.03L1173.49 865.632Q1166.41 871.65 1158.27 875.898Q1147.76 881.254 1143.97 878.219Q1141.24 876.039 1141.98 869.526Q1143.05 866.34 1148.53 852.357Q1154.02 838.374 1155.08 833.772Q1162.16 803.328 1156.85 794.478Q1138.44 783.15 1119.68 800.142Q1117.91 801.912 1108.71 810.585ZM1257.39 756.954Q1256.68 757.662 1256.15 758.547Q1255.62 759.432 1255.26 759.786Q1253.85 762.264 1253.49 762.972Q1253.49 764.034 1252.79 764.742L1249.24 768.99Q1247.83 771.114 1243.93 771.822Q1242.87 771.468 1241.46 772.884Q1238.98 774.654 1236.5 773.238Q1235.44 772.53 1233.67 772.53Q1231.19 772.53 1229.78 772.176L1230.84 770.76Q1230.84 770.052 1231.19 768.636Q1231.9 767.928 1231.9 767.22Q1232.61 765.804 1234.38 762.618Q1234.38 762.264 1234.73 761.556L1235.44 760.848Q1235.44 760.494 1238.27 754.83L1240.4 751.644Q1241.81 750.228 1242.52 750.228Q1243.58 749.52 1244.29 750.228Q1244.29 750.617 1244.48 750.768Q1244.81 751.031 1245.7 750.582Q1246.77 749.874 1247.12 750.228Q1248.18 750.582 1251.72 751.644Q1255.26 753.06 1257.39 756.954ZM1322.52 829.524L1321.46 828.462L1321.46 827.4Q1321.81 827.046 1322.52 827.754L1322.52 829.524ZM1321.46 832.002L1321.11 831.294L1322.17 829.878Q1322.17 831.294 1321.81 832.002L1321.46 832.002ZM1321.46 834.126L1321.81 834.48L1321.46 835.542Q1321.11 835.188 1321.11 834.48L1321.46 834.126ZM1322.52 838.02L1322.17 838.02L1322.17 837.666Q1322.52 837.666 1322.52 838.02ZM1324.65 869.526L1324.29 870.234Q1324.29 869.526 1323.94 869.526L1323.94 868.818L1324.29 868.11L1324.65 868.11Q1325.35 868.464 1325.35 868.818Q1325.35 869.172 1324.65 869.526ZM1324.29 872.712Q1324.29 873.42 1324.65 873.774Q1324.29 873.774 1323.94 874.128Q1323.76 874.128 1323.67 874.04Q1323.58 873.951 1323.58 873.774L1323.94 873.42Q1323.94 873.066 1324.29 872.712ZM942.327 917.67Q944.097 917.316 945.867 915.546Q946.575 914.838 949.053 912.006Q958.795 901.265 961.663 902.862Q962.859 903.529 962.859 906.342Q962.859 907.404 962.505 907.404Q961.797 908.82 961.266 912.36Q960.735 915.9 959.673 917.67Q957.903 922.98 955.425 926.874Q954.363 928.998 954.009 929.352Q951.177 935.016 946.221 938.91L941.973 943.512L937.725 947.052Q935.955 948.822 933.831 947.406L929.583 942.45Q927.813 940.68 928.875 937.848Q929.229 937.494 929.937 932.184Q930.645 930.414 933.477 927.582Q935.601 926.166 937.017 922.98Q938.787 918.732 942.327 917.67Z" />
  </g>
</svg>